<svg xmlns="http://www.w3.org/2000/svg" style="display: none;">
  <!-- Education/School -->
  <symbol id="icon-school" viewBox="0 0 24 24">
    <path fill="currentColor" d="M12 3L1 9l4 2.18v6L12 21l7-3.82v-6l2-1.09V17h2V9L12 3zm6.82 6L12 12.72 5.18 9 12 5.28 18.82 9zM17 15.99l-5 2.73-5-2.73v-3.72L12 15l5-2.73v3.72z"/>
  </symbol>
  
  <!-- Build/Tools -->
  <symbol id="icon-build" viewBox="0 0 24 24">
    <path fill="currentColor" d="M22.61 18.99l-9.08-9.08c.93-2.34.45-5.1-1.44-7C9.79.61 6.21.4 3.66 2.26L7.5 6.11 6.08 7.52 2.25 3.69C.39 6.23.6 9.82 2.9 12.11c1.86 1.86 4.57 2.35 6.89 1.48l9.11 9.11c.39.39 1.02.39 1.41 0l2.3-2.3c.4-.38.4-1.01 0-1.41zm-3 1.6l-9.46-9.46c-.61.45-1.29.72-2 .82-1.36.2-2.79-.21-3.83-1.25C3.37 9.76 2.93 8.5 3 7.26l3.09 3.09 4.24-4.24-3.09-3.09c1.24-.07 2.49.37 3.44 1.31 1.08 1.08 1.49 2.57 1.24 3.96-.12.71-.42 1.37-.88 1.96l9.45 9.45-.88.89z"/>
  </symbol>
  
  <!-- Terminal/Console -->
  <symbol id="icon-terminal" viewBox="0 0 24 24">
    <path fill="currentColor" d="M20 4H4c-1.11 0-2 .89-2 2v12c0 1.11.89 2 2 2h16c1.11 0 2-.89 2-2V6c0-1.11-.89-2-2-2zm0 14H4V8h16v10zm-2-1h-6v-2h6v2zM7.5 17l-1.41-1.41L8.67 13l-2.58-2.59L7.5 9l4 4-4 4z"/>
  </symbol>
  
  <!-- Memory/Hardware -->
  <symbol id="icon-memory" viewBox="0 0 24 24">
    <path fill="currentColor" d="M15 9H9v6h6V9zm-2 4h-2v-2h2v2zm8-2V9h-2V7c0-1.1-.9-2-2-2h-2V3h-2v2h-2V3H9v2H7c-1.1 0-2 .9-2 2v2H3v2h2v2H3v2h2v2c0 1.1.9 2 2 2h2v2h2v-2h2v2h2v-2h2c1.1 0 2-.9 2-2v-2h2v-2h-2v-2h2zm-4 6H7V7h10v10z"/>
  </symbol>
  
  <!-- Computer -->
  <symbol id="icon-computer" viewBox="0 0 24 24">
    <path fill="currentColor" d="M20 18c1.1 0 1.99-.9 1.99-2L22 6c0-1.1-.9-2-2-2H4c-1.1 0-2 .9-2 2v10c0 1.1.9 2 2 2H0v2h24v-2h-4zM4 6h16v10H4V6z"/>
  </symbol>
  
  <!-- Groups/People -->
  <symbol id="icon-groups" viewBox="0 0 24 24">
    <path fill="currentColor" d="M12 12.75c1.63 0 3.07.39 4.24.9 1.08.48 1.76 1.56 1.76 2.73V18H6v-1.61c0-1.18.68-2.26 1.76-2.73 1.17-.52 2.61-.91 4.24-.91zM4 13c1.1 0 2-.9 2-2s-.9-2-2-2-2 .9-2 2 .9 2 2 2zm1.13 1.1c-.37-.06-.74-.1-1.13-.1-.99 0-1.93.21-2.78.58C.48 14.9 0 15.62 0 16.43V18h4.5v-1.61c0-.83.23-1.61.63-2.29zM20 13c1.1 0 2-.9 2-2s-.9-2-2-2-2 .9-2 2 .9 2 2 2zm4 3.43c0-.81-.48-1.53-1.22-1.85-.85-.37-1.79-.58-2.78-.58-.39 0-.76.04-1.13.1.4.68.63 1.46.63 2.29V18H24v-1.57zM12 6c1.66 0 3 1.34 3 3s-1.34 3-3 3-3-1.34-3-3 1.34-3 3-3z"/>
  </symbol>
  
  <!-- Science/Lab -->
  <symbol id="icon-science" viewBox="0 0 24 24">
    <path fill="currentColor" d="M19.8 18.4L14 10.67V6.5l1.35-1.69c.26-.33.03-.81-.39-.81H9.04c-.42 0-.65.48-.39.81L10 6.5v4.17L4.2 18.4c-.49.66-.02 1.6.8 1.6h14c.82 0 1.29-.94.8-1.6zM6 18l4-5.33V6.5h4v6.17L18 18H6z"/>
  </symbol>
  
  <!-- Badge/ID -->
  <symbol id="icon-badge" viewBox="0 0 24 24">
    <path fill="currentColor" d="M20 7h-5V4c0-1.1-.9-2-2-2h-2c-1.1 0-2 .9-2 2v3H4c-1.1 0-2 .9-2 2v11c0 1.1.9 2 2 2h16c1.1 0 2-.9 2-2V9c0-1.1-.9-2-2-2zM9 12c.83 0 1.5.67 1.5 1.5S9.83 15 9 15s-1.5-.67-1.5-1.5S8.17 12 9 12zm3 6H6v-.75c0-1 2-1.5 3-1.5s3 .5 3 1.5V18zm1-9h-2V4h2v5zm5 7.5h-4V15h4v1.5zm0-3h-4V12h4v1.5z"/>
  </symbol>
  
  <!-- Label/Tag -->
  <symbol id="icon-label" viewBox="0 0 24 24">
    <path fill="currentColor" d="M17.63 5.84C17.27 5.33 16.67 5 16 5L5 5.01C3.9 5.01 3 5.9 3 7v10c0 1.1.9 1.99 2 1.99L16 19c.67 0 1.27-.33 1.63-.84L22 12l-4.37-6.16zM16 17H5V7h11l3.55 5L16 17z"/>
  </symbol>
</svg>
