<?xml version="1.0" encoding="UTF-8"?>
<svg xmlns="http://www.w3.org/2000/svg" style="display: none;">
    <!-- Education/School Icon -->
    <symbol id="icon-school" viewBox="0 0 24 24" fill="currentColor">
        <path d="M12 3L1 9l4 2.18v6L12 21l7-3.82v-6l2-1.09V17h2V9L12 3zm6.82 6L12 12.72 5.18 9 12 5.28 18.82 9zM17 15.99l-5 2.73-5-2.73v-3.72L12 15l5-2.73v3.72z"/>
    </symbol>

    <!-- Build/Wrench Icon -->
    <symbol id="icon-build" viewBox="0 0 24 24" fill="currentColor">
        <path d="M22.7 19l-9.1-9.1c.9-2.3.4-5-1.5-6.9-2-2-5-2.4-7.4-1.3L9 6 6 9 1.6 4.7C.4 7.1.9 10.1 2.9 12.1c1.9 1.9 4.6 2.4 6.9 1.5l9.1 9.1c.4.4 1 .4 1.4 0l2.3-2.3c.5-.4.5-1.1.1-1.4z"/>
    </symbol>

    <!-- Terminal Icon -->
    <symbol id="icon-terminal" viewBox="0 0 24 24" fill="currentColor">
        <path d="M20 4H4c-1.1 0-2 .9-2 2v12c0 1.1.9 2 2 2h16c1.1 0 2-.9 2-2V6c0-1.1-.9-2-2-2zm0 14H4V8h16v10zm-2-1h-6v-2h6v2zM7.5 17l-1.41-1.41L8.67 13l-2.59-2.59L7.5 9l4 4-4 4z"/>
    </symbol>

    <!-- Memory/Hardware Icon -->
    <symbol id="icon-memory" viewBox="0 0 24 24" fill="currentColor">
        <path d="M15 9H9v6h6V9zm-2 4h-2v-2h2v2zm8-2V9h-2V7c0-1.1-.9-2-2-2h-2V3h-2v2h-2V3H9v2H7c-1.1 0-2 .9-2 2v2H3v2h2v2H3v2h2v2c0 1.1.9 2 2 2h2v2h2v-2h2v2h2v-2h2c1.1 0 2-.9 2-2v-2h2v-2h-2v-2h2zm-4 6H7V7h10v10z"/>
    </symbol>

    <!-- Computer/Desktop Icon -->
    <symbol id="icon-computer" viewBox="0 0 24 24" fill="currentColor">
        <path d="M20 18c1.1 0 1.99-.9 1.99-2L22 6c0-1.1-.9-2-2-2H4c-1.1 0-2 .9-2 2v10c0 1.1.9 2 2 2H0v2h24v-2h-4zM4 6h16v10H4V6z"/>
    </symbol>

    <!-- Groups/Team Icon -->
    <symbol id="icon-groups" viewBox="0 0 24 24" fill="currentColor">
        <path d="M12 12.75c1.63 0 3.07.39 4.24.9 1.08.48 1.76 1.56 1.76 2.73V18H6v-1.61c0-1.18.68-2.26 1.76-2.73 1.17-.52 2.61-.91 4.24-.91zM4 13c1.1 0 2-.9 2-2s-.9-2-2-2-2 .9-2 2 .9 2 2 2zm1.13 1.1c-.37-.06-.74-.1-1.13-.1-.99 0-1.93.21-2.78.58C.48 14.9 0 15.62 0 16.43V18h4.5v-1.61c0-.83.23-1.61.63-2.29zM20 13c1.1 0 2-.9 2-2s-.9-2-2-2-2 .9-2 2 .9 2 2 2zm4 3.43c0-.81-.48-1.53-1.22-1.85-.85-.37-1.79-.58-2.78-.58-.39 0-.76.04-1.13.1.4.68.63 1.46.63 2.29V18H24v-1.57zM12 6c1.66 0 3 1.34 3 3s-1.34 3-3 3-3-1.34-3-3 1.34-3 3-3z"/>
    </symbol>

    <!-- Science/Lab Icon -->
    <symbol id="icon-science" viewBox="0 0 24 24" fill="currentColor">
        <path d="M19.8 18.4L14 10.67V6.5l1.35-1.69c.26-.33.03-.81-.39-.81H9.04c-.42 0-.65.48-.39.81L10 6.5v4.17L4.2 18.4c-.49.66-.02 1.6.8 1.6h14c.82 0 1.29-.94.8-1.6z"/>
    </symbol>

    <!-- Badge/Award Icon -->
    <symbol id="icon-badge" viewBox="0 0 24 24" fill="currentColor">
        <path d="M20 7h-5V4c0-1.1-.9-2-2-2h-2c-1.1 0-2 .9-2 2v3H4c-1.1 0-2 .9-2 2v11c0 1.1.9 2 2 2h16c1.1 0 2-.9 2-2V9c0-1.1-.9-2-2-2zm-9-3h2v5h-2V4zm9 16H4V9h5c0 1.1.9 2 2 2h2c1.1 0 2-.9 2-2h5v11zm-9-4h2v2h-2zm0-4h2v2h-2z"/>
    </symbol>

    <!-- Label/Tag Icon -->
    <symbol id="icon-label" viewBox="0 0 24 24" fill="currentColor">
        <path d="M17.63 5.84C17.27 5.33 16.67 5 16 5L5 5.01C3.9 5.01 3 5.9 3 7v10c0 1.1.9 1.99 2 1.99L16 19c.67 0 1.27-.33 1.63-.84L22 12l-4.37-6.16zM16 17H5V7h11l3.55 5L16 17z"/>
    </symbol>

    <!-- Shield/Security Icon -->
    <symbol id="icon-shield" viewBox="0 0 24 24" fill="currentColor">
        <path d="M12 1L3 5v6c0 5.55 3.84 10.74 9 12 5.16-1.26 9-6.45 9-12V5l-9-4zm0 10.99h7c-.53 4.12-3.28 7.79-7 8.94V12H5V6.3l7-3.11v8.8z"/>
    </symbol>

    <!-- Storage/Database Icon -->
    <symbol id="icon-storage" viewBox="0 0 24 24" fill="currentColor">
        <path d="M2 20h20v-4H2v4zm2-3h2v2H4v-2zM2 4v4h20V4H2zm4 3H4V5h2v2zm-4 7h20v-4H2v4zm2-3h2v2H4v-2z"/>
    </symbol>

    <!-- Phone/Mobile Icon -->
    <symbol id="icon-phone-android" viewBox="0 0 24 24" fill="currentColor">
        <path d="M16 1H8C6.34 1 5 2.34 5 4v16c0 1.66 1.34 3 3 3h8c1.66 0 3-1.34 3-3V4c0-1.66-1.34-3-3-3zm-2 20h-4v-1h4v1zm3.25-3H6.75V4h10.5v14z"/>
    </symbol>

    <!-- Router/Network Icon -->
    <symbol id="icon-router" viewBox="0 0 24 24" fill="currentColor">
        <path d="M20.2 5.9l.8-.8C19.6 3.7 17.8 3 16 3s-3.6.7-5 2.1l.8.8C13 4.8 14.5 4.2 16 4.2s3 .6 4.2 1.7zm-.9.8c-.9-.9-2.1-1.4-3.3-1.4s-2.4.5-3.3 1.4l.8.8c.7-.7 1.6-1 2.5-1 .9 0 1.8.3 2.5 1l.8-.8zM19 13h-2V9h-2v4H5c-1.1 0-2 .9-2 2v4c0 1.1.9 2 2 2h14c1.1 0 2-.9 2-2v-4c0-1.1-.9-2-2-2zM8 18H6v-2h2v2zm3.5 0h-2v-2h2v2zm3.5 0h-2v-2h2v2z"/>
    </symbol>

    <!-- Book/Documentation Icon -->
    <symbol id="icon-book" viewBox="0 0 24 24" fill="currentColor">
        <path d="M18 2H6c-1.1 0-2 .9-2 2v16c0 1.1.9 2 2 2h12c1.1 0 2-.9 2-2V4c0-1.1-.9-2-2-2zM6 4h5v8l-2.5-1.5L6 12V4z"/>
    </symbol>

    <!-- Privacy/Lock Icon -->
    <symbol id="icon-privacy" viewBox="0 0 24 24" fill="currentColor">
        <path d="M18 8h-1V6c0-2.76-2.24-5-5-5S7 3.24 7 6v2H6c-1.1 0-2 .9-2 2v10c0 1.1.9 2 2 2h12c1.1 0 2-.9 2-2V10c0-1.1-.9-2-2-2zm-6 9c-1.1 0-2-.9-2-2s.9-2 2-2 2 .9 2 2-.9 2-2 2zm3.1-9H8.9V6c0-1.71 1.39-3.1 3.1-3.1 1.71 0 3.1 1.39 3.1 3.1v2z"/>
    </symbol>

    <!-- Code Icon -->
    <symbol id="icon-code" viewBox="0 0 24 24" fill="currentColor">
        <path d="M9.4 16.6L4.8 12l4.6-4.6L8 6l-6 6 6 6 1.4-1.4zm5.2 0l4.6-4.6-4.6-4.6L16 6l6 6-6 6-1.4-1.4z"/>
    </symbol>

    <!-- Arrow Down Icon -->
    <symbol id="icon-arrow-down" viewBox="0 0 24 24" fill="currentColor">
        <path d="M7.41 8.59L12 13.17l4.59-4.58L18 10l-6 6-6-6 1.41-1.41z"/>
    </symbol>

    <!-- Homelab/Server Icon -->
    <symbol id="icon-homelab" viewBox="0 0 24 24" fill="currentColor">
        <path d="M20 13H4c-.55 0-1 .45-1 1v6c0 .55.45 1 1 1h16c.55 0 1-.45 1-1v-6c0-.55-.45-1-1-1zM7 19c-1.1 0-2-.9-2-2s.9-2 2-2 2 .9 2 2-.9 2-2 2zM20 3H4c-.55 0-1 .45-1 1v6c0 .55.45 1 1 1h16c.55 0 1-.45 1-1V4c0-.55-.45-1-1-1zM7 9c-1.1 0-2-.9-2-2s.9-2 2-2 2 .9 2 2-.9 2-2 2z"/>
    </symbol>

    <!-- Arrow Forward Icon -->
    <symbol id="icon-arrow-forward" viewBox="0 0 24 24" fill="currentColor">
        <path d="M12 4l-1.41 1.41L16.17 11H4v2h12.17l-5.58 5.59L12 20l8-8z"/>
    </symbol>
</svg>
